<!DOCTYPE svg PUBLIC "-//W3C//DTD SVG 20010904//EN" "http://www.w3.org/TR/2001/REC-SVG-20010904/DTD/svg10.dtd">
<svg version="1.0" xmlns="http://www.w3.org/2000/svg" width="299px" height="266px" viewBox="0 0 2990 2660" preserveAspectRatio="xMidYMid meet">
<g id="layer101" fill="#474747" stroke="none">
 <path d="M0 1330 l0 -1330 435 0 435 0 0 435 0 435 -425 0 -425 0 0 460 0 460 1486 0 c987 0 1483 3 1479 10 -4 7 -368 10 -1061 10 l-1054 0 0 425 0 425 -435 0 -435 0 0 -1330z m850 895 l0 -415 -415 0 -415 0 0 415 0 415 415 0 415 0 0 -415z m0 -1790 l0 -415 -415 0 -415 0 0 415 0 415 415 0 415 0 0 -415z"/>
 <path d="M420 2225 c0 -170 4 -265 10 -265 6 0 10 95 10 265 0 170 -4 265 -10 265 -6 0 -10 -95 -10 -265z"/>
 <path d="M131 2333 c0 -10 17 -67 37 -128 31 -92 41 -111 59 -113 19 -3 25 8 58 113 20 64 38 122 42 130 3 10 -1 15 -15 15 -14 0 -24 -10 -32 -35 -11 -34 -14 -35 -59 -35 -45 0 -49 2 -57 32 -10 35 -35 51 -33 21z m112 -130 c-9 -27 -17 -50 -19 -52 -4 -4 -21 38 -30 74 -6 23 -3 25 29 25 36 0 36 0 20 -47z"/>
 <path d="M541 676 c-7 -8 -19 -12 -27 -9 -8 3 -16 -3 -20 -13 -3 -11 -11 -29 -17 -42 -8 -16 -8 -25 -1 -30 14 -9 25 -52 13 -52 -5 0 -9 9 -9 20 0 25 -27 37 -43 21 -9 -9 -16 -6 -29 11 -18 23 -18 23 -38 -1 -17 -19 -23 -21 -35 -11 -12 10 -18 10 -30 0 -8 -7 -15 -19 -15 -26 0 -8 -6 -14 -14 -14 -23 0 -39 -27 -28 -46 7 -13 5 -22 -12 -36 -21 -18 -21 -18 1 -37 15 -13 19 -21 11 -29 -15 -15 -2 -42 21 -42 13 0 21 -8 23 -22 2 -18 9 -23 33 -22 17 0 34 -5 38 -13 10 -16 29 -17 45 -1 7 7 24 12 40 13 20 0 28 6 30 23 2 14 10 22 23 22 23 0 35 25 21 43 -8 9 -6 16 9 25 22 14 25 40 6 48 -7 2 -12 21 -12 44 0 35 1 38 16 24 14 -13 18 -13 28 0 7 8 19 12 27 9 8 -3 16 3 20 13 3 11 10 27 15 37 6 10 6 24 0 35 -5 9 -12 25 -15 35 -3 10 -12 17 -19 14 -6 -2 -19 2 -28 10 -14 12 -18 11 -28 -1z m60 -42 c21 -19 13 -60 -14 -79 -28 -20 -39 -19 -65 5 -28 26 -28 54 0 80 23 21 50 19 79 -6z m-201 -80 c0 -17 36 -19 47 -1 5 8 9 2 13 -18 5 -24 10 -29 28 -28 23 3 30 -11 12 -22 -17 -10 -11 -33 10 -40 23 -7 27 -25 6 -25 -21 0 -30 -20 -17 -33 18 -18 13 -27 -14 -27 -20 0 -25 -5 -25 -25 0 -27 -9 -32 -27 -14 -13 13 -33 4 -33 -17 0 -21 -21 -17 -27 6 -6 21 -28 27 -38 10 -11 -18 -26 -10 -23 12 2 18 -3 24 -27 28 -20 4 -26 8 -17 13 20 13 14 44 -10 51 -23 7 -23 7 0 18 23 12 29 32 12 43 -20 12 -9 26 18 23 24 -3 27 0 24 25 -3 25 -1 27 17 18 29 -16 39 -14 46 9 7 22 25 18 25 -6z"/>
 <path d="M536 611 c-8 -12 21 -34 33 -27 6 4 8 13 4 21 -6 17 -29 20 -37 6z"/>
 <path d="M319 499 c-39 -41 -39 -87 -1 -130 51 -57 141 -36 161 37 12 44 2 74 -35 103 -40 32 -89 28 -125 -10z m111 -19 c41 -41 15 -110 -42 -110 -33 0 -68 31 -68 60 0 12 11 32 25 45 29 30 58 32 85 5z"/>
 <path d="M356 444 c-9 -22 12 -46 38 -42 15 2 21 10 21 28 0 20 -6 26 -26 28 -18 2 -29 -3 -33 -14z m44 -9 c0 -8 -7 -15 -15 -15 -16 0 -20 12 -8 23 11 12 23 8 23 -8z"/>
 <path d="M535 340 c-3 -5 -15 -10 -26 -10 -13 0 -19 -7 -19 -24 0 -13 -6 -26 -12 -29 -10 -3 -10 -9 0 -26 6 -11 12 -28 12 -36 0 -8 7 -15 15 -15 8 0 25 -6 36 -12 17 -10 23 -10 26 0 3 6 16 12 29 12 19 0 24 5 24 25 0 14 5 25 10 25 6 0 10 7 10 15 0 8 -4 15 -10 15 -5 0 -10 11 -10 25 0 20 -5 25 -25 25 -14 0 -25 5 -25 10 0 6 -6 10 -14 10 -8 0 -18 -4 -21 -10z"/>
 <path d="M111 1368 c0 -7 17 -62 38 -123 30 -88 42 -111 58 -113 18 -3 26 11 58 110 21 62 40 119 43 126 2 7 -4 12 -16 12 -15 0 -24 -10 -32 -36 -12 -34 -13 -35 -58 -32 -43 3 -47 6 -56 36 -8 30 -37 46 -35 20z m111 -138 c-17 -50 -17 -50 -28 -22 -29 69 -28 72 9 72 35 0 35 0 19 -50z"/>
 <path d="M390 1254 c0 -114 2 -125 18 -122 14 3 18 18 22 88 l5 85 49 -87 c34 -60 55 -88 68 -88 16 0 18 11 18 125 0 118 -1 125 -20 125 -17 0 -20 -8 -22 -90 l-3 -90 -50 90 c-33 59 -56 90 -67 90 -16 0 -18 -13 -18 -126z"/>
 <path d="M674 1367 c-2 -7 -3 -62 -2 -123 3 -109 3 -109 49 -112 75 -5 118 43 88 99 -8 16 -7 25 5 38 22 24 20 67 -4 91 -24 24 -127 29 -136 7z m104 -26 c8 -5 12 -21 10 -37 -3 -26 -7 -29 -40 -32 -38 -3 -38 -3 -38 37 0 38 2 41 28 41 15 0 33 -4 40 -9z m-8 -115 c6 -8 10 -25 8 -38 -2 -18 -10 -24 -35 -26 -32 -3 -33 -2 -33 37 0 36 3 41 24 41 13 0 29 -7 36 -14z"/>
 <path d="M922 1258 c3 -123 3 -123 71 -126 55 -2 67 0 67 13 0 11 -12 15 -50 15 -50 0 -50 0 -50 40 0 40 0 40 45 40 33 0 45 4 45 15 0 11 -12 15 -45 15 -45 0 -45 0 -45 39 0 40 0 40 52 43 30 2 53 8 56 16 3 9 -16 12 -72 12 -77 0 -77 0 -74 -122z"/>
 <path d="M1154 1367 c-2 -7 -3 -62 -2 -123 3 -94 5 -109 21 -112 14 -3 17 5 17 52 0 56 0 56 49 56 50 0 50 0 53 -52 2 -41 7 -54 21 -56 15 -3 17 8 17 122 0 119 -1 126 -20 126 -18 0 -20 -7 -20 -55 0 -55 0 -55 -50 -55 -50 0 -50 0 -50 55 0 43 -3 55 -15 55 -9 0 -18 -6 -21 -13z"/>
 <path d="M1438 1338 c-2 -24 -2 -80 0 -125 3 -83 3 -83 63 -83 46 0 59 3 59 15 0 11 -11 15 -40 15 -39 0 -39 0 -42 107 -3 92 -6 108 -20 111 -13 3 -17 -6 -20 -40z"/>
 <path d="M1671 1366 c-33 -18 -50 -53 -51 -104 0 -102 71 -158 153 -121 72 33 77 192 8 229 -27 14 -81 12 -110 -4z m103 -38 c24 -34 21 -119 -4 -146 -24 -25 -58 -28 -85 -8 -13 10 -20 30 -23 74 -4 51 -1 63 17 81 28 28 75 28 95 -1z"/>
 <path d="M436 1101 c-21 -24 -5 -37 24 -19 16 10 24 10 41 0 25 -16 37 -7 23 16 -16 25 -66 27 -88 3z"/>
 </g>

</svg>