<?xml version="1.0" standalone="no"?>
<!DOCTYPE svg PUBLIC "-//W3C//DTD SVG 20010904//EN"
 "http://www.w3.org/TR/2001/REC-SVG-20010904/DTD/svg10.dtd">
<svg version="1.0" xmlns="http://www.w3.org/2000/svg"
 width="310.000000pt" height="310.000000pt" viewBox="0 0 310.000000 310.000000"
 preserveAspectRatio="xMidYMid meet">
<metadata>
Created by potrace 1.11, written by Peter Selinger 2001-2013
</metadata>
<g transform="translate(0.000000,310.000000) scale(0.100000,-0.100000)"
fill="#000000" stroke="none">
<path d="M95 2898 c-3 -7 -4 -182 -3 -388 l3 -375 347 -3 348 -2 2 -968 3
-967 1005 0 1005 0 0 460 0 460 -35 0 -35 0 -3 -423 -2 -422 -930 0 -930 0 0
930 0 930 930 0 930 0 2 -252 3 -253 35 0 35 0 0 290 0 290 -967 3 -968 2 -2
348 -3 347 -383 3 c-301 2 -384 0 -387 -10z m695 -378 l0 -310 -310 0 -310 0
0 98 0 98 35 -4 c32 -4 37 -1 48 27 14 39 41 40 59 4 11 -23 20 -28 48 -28 48
0 48 18 2 145 l-38 105 -39 0 -40 0 -37 -100 -37 -100 0 188 -1 187 310 0 310
0 0 -310z m-481 -2 c1 -5 -11 -8 -25 -8 -20 0 -25 4 -20 16 3 9 9 28 13 42 l6
27 13 -35 c7 -19 13 -38 13 -42z"/>
<path d="M445 2807 c-3 -7 -4 -131 -3 -277 l3 -265 35 0 35 0 3 264 c2 186 -1
268 -9 277 -14 18 -58 18 -64 1z"/>
<path d="M1427 1543 c-4 -3 -7 -19 -7 -34 0 -18 -6 -28 -20 -32 -20 -5 -20
-12 -18 -149 l3 -143 28 -3 c35 -4 50 8 85 70 l27 48 5 -57 5 -58 35 0 35 0 3
143 c2 134 1 144 -17 149 -14 3 -18 13 -17 36 1 28 -2 32 -29 35 -18 2 -33 -2
-41 -12 -10 -15 -12 -15 -18 -1 -5 15 -47 21 -59 8z m83 -100 c0 -5 -11 -26
-25 -48 l-24 -40 -1 48 c0 44 2 47 25 47 14 0 25 -3 25 -7z"/>
<path d="M1173 1468 c-18 -24 -95 -260 -89 -274 4 -10 17 -14 38 -12 26 2 36
10 47 36 11 25 21 32 41 32 22 0 29 -6 36 -32 9 -29 14 -33 44 -33 29 0 36 4
38 23 4 23 -63 237 -81 260 -5 6 -22 12 -37 12 -15 0 -32 -6 -37 -12z m46 -90
c25 -66 24 -68 -8 -68 -35 0 -35 -1 -19 51 13 45 16 47 27 17z"/>
<path d="M1694 1467 c-2 -7 -3 -74 -2 -148 l3 -134 78 -3 c75 -3 79 -2 108 28
28 28 30 34 25 78 -4 26 -7 66 -6 89 0 30 -7 50 -26 72 -25 30 -29 31 -100 31
-52 0 -76 -4 -80 -13z m136 -62 c19 -22 -5 -45 -46 -45 -31 0 -34 3 -34 30 0
27 3 30 34 30 18 0 39 -7 46 -15z m-6 -95 c52 -19 26 -70 -36 -70 -38 0 -38 0
-38 40 0 36 3 40 24 40 14 0 36 -4 50 -10z"/>
<path d="M1975 1467 c-3 -7 -4 -74 -3 -148 l3 -134 90 0 90 0 0 35 0 35 -52 3
c-44 3 -53 6 -53 22 0 15 9 19 43 22 41 3 42 4 42 38 0 34 -1 35 -42 38 -60 4
-54 20 10 24 l52 3 0 35 0 35 -88 3 c-66 2 -89 -1 -92 -11z"/>
<path d="M2235 1468 c-3 -8 -4 -75 -3 -149 l3 -134 35 0 35 0 3 58 3 57 34 0
34 0 3 -57 3 -58 35 0 35 0 0 145 0 145 -35 0 c-35 0 -35 0 -38 -47 -3 -47 -4
-48 -37 -48 -33 0 -34 1 -37 48 -3 45 -4 47 -36 50 -20 2 -34 -2 -37 -10z"/>
<path d="M2535 1467 c-3 -7 -4 -74 -3 -148 l3 -134 35 0 35 0 3 107 3 107 51
3 c58 3 81 25 62 56 -9 14 -28 18 -98 20 -65 2 -88 -1 -91 -11z"/>
<path d="M2805 1458 c-34 -27 -55 -75 -55 -128 0 -92 51 -150 131 -150 42 0
55 5 86 34 36 33 38 37 41 110 l4 76 -40 40 c-36 36 -45 40 -89 40 -36 0 -58
-6 -78 -22z m124 -64 c42 -53 13 -154 -44 -154 -12 0 -33 9 -46 19 -20 16 -24
29 -24 71 0 42 4 55 24 71 33 27 66 24 90 -7z"/>
</g>
</svg>
