<?xml version="1.0" ?><svg viewBox="0 0 64 64" xmlns="http://www.w3.org/2000/svg"><title/><g id="Website"><path d="M60,2H4A2.002,2.002,0,0,0,2,4V60a2.002,2.002,0,0,0,2,2H60a2.002,2.002,0,0,0,2-2V4A2.002,2.002,0,0,0,60,2Zm0,2,0,12H4V4ZM4,60V18H60l.0011,42Z"/><path d="M11,14a4,4,0,1,0-4-4A4.0045,4.0045,0,0,0,11,14Zm0-6a2,2,0,1,1-2,2A2.002,2.002,0,0,1,11,8Z"/><path d="M22,14a4,4,0,1,0-4-4A4.0045,4.0045,0,0,0,22,14Zm0-6a2,2,0,1,1-2,2A2.002,2.002,0,0,1,22,8Z"/><path d="M30,14H56a1,1,0,0,0,1-1V7a1,1,0,0,0-1-1H30a1,1,0,0,0-1,1v6A1,1,0,0,0,30,14Zm1-6H55v4H31Z"/><path d="M37,22H9a1,1,0,0,0-1,1V55a1,1,0,0,0,1,1H37a1,1,0,0,0,1-1V23A1,1,0,0,0,37,22Zm-1,2V48H10V24ZM10,54V50H36v4Z"/><path d="M18,44.5825a1.9789,1.9789,0,0,0,2,0l11-6.3511a2,2,0,0,0,0-3.4638l0,0L20,28.417a2,2,0,0,0-3,1.7319V42.8511A1.9782,1.9782,0,0,0,18,44.5825Zm1-14.4331L30,36.5,19,42.8511Z"/><path d="M47,28h8a1,1,0,0,0,0-2H47a1,1,0,0,0,0,2Z"/><path d="M55,34H43a1,1,0,0,0,0,2H55a1,1,0,0,0,0-2Z"/><path d="M55,42H43a1,1,0,0,0,0,2H55a1,1,0,0,0,0-2Z"/><path d="M55,50H43a1,1,0,0,0,0,2H55a1,1,0,0,0,0-2Z"/></g></svg>